<?xml version="1.0" encoding="UTF-8"?>
<!--Generator: Apple Native CoreSVG 341-->
<!DOCTYPE svg
PUBLIC "-//W3C//DTD SVG 1.1//EN"
       "http://www.w3.org/Graphics/SVG/1.1/DTD/svg11.dtd">
<svg version="1.1" xmlns="http://www.w3.org/2000/svg" xmlns:xlink="http://www.w3.org/1999/xlink" viewBox="0 0 173.145 271.191">
 <g>
  
  <path d="M86.5234 271.191C143.457 271.191 173.145 237.5 173.145 173.242C173.145 133.789 171.582 98.7305 169.336 74.9023C164.648 22.2656 140.234 0.292969 86.5234 0.292969C32.8125 0.292969 8.49609 22.2656 3.71094 74.9023C1.5625 98.7305 0 133.789 0 173.242C0 237.5 29.6875 271.191 86.5234 271.191ZM86.5234 253.906C40.8203 253.906 17.2852 226.465 17.2852 173.242C17.2852 136.23 18.6523 101.172 20.9961 76.4648C24.8047 33.0078 41.6992 17.5781 86.5234 17.5781C131.445 17.5781 148.34 33.0078 152.148 76.4648C154.492 101.172 155.859 136.23 155.859 173.242C155.859 226.465 132.227 253.906 86.5234 253.906ZM13.2812 91.6992L159.863 91.6992L159.863 77.3438L13.2812 77.3438ZM79.4922 84.375L93.8477 84.4727L93.8477 11.2305L79.4922 11.1328Z" fill="white" fill-opacity="0.85"/>
 </g>
</svg>
