<?xml version="1.0" encoding="UTF-8"?>
<!--Generator: Apple Native CoreSVG 341-->
<!DOCTYPE svg
PUBLIC "-//W3C//DTD SVG 1.1//EN"
       "http://www.w3.org/Graphics/SVG/1.1/DTD/svg11.dtd">
<svg version="1.1" xmlns="http://www.w3.org/2000/svg" xmlns:xlink="http://www.w3.org/1999/xlink" viewBox="0 0 296.289 257.91">
 <g>
  <path d="M25.7812 214.258L270.508 214.258C286.523 214.258 296.289 204.492 296.289 188.477L296.289 34.082C296.289 18.0664 286.523 8.30078 270.508 8.30078L25.7812 8.30078C9.76562 8.30078 0 18.0664 0 34.082L0 188.477C0 204.492 9.76562 214.258 25.7812 214.258ZM26.1719 196.973C20.7031 196.973 17.2852 193.555 17.2852 188.086L17.2852 34.4727C17.2852 29.0039 20.7031 25.5859 26.1719 25.5859L270.117 25.5859C275.586 25.5859 279.004 29.0039 279.004 34.4727L279.004 188.086C279.004 193.555 275.586 196.973 270.117 196.973ZM109.082 245.41L187.207 245.41L187.207 212.695L109.082 212.695ZM107.812 257.91L188.477 257.91C193.262 257.91 197.168 254.102 197.168 249.316C197.168 244.434 193.262 240.527 188.477 240.527L107.812 240.527C103.027 240.527 99.1211 244.434 99.1211 249.316C99.1211 254.102 103.027 257.91 107.812 257.91Z" fill="white" fill-opacity="0.85"/>
 </g>
</svg>
