<?xml version="1.0" encoding="UTF-8"?>
<!--Generator: Apple Native CoreSVG 341-->
<!DOCTYPE svg
PUBLIC "-//W3C//DTD SVG 1.1//EN"
       "http://www.w3.org/Graphics/SVG/1.1/DTD/svg11.dtd">
<svg version="1.1" xmlns="http://www.w3.org/2000/svg" xmlns:xlink="http://www.w3.org/1999/xlink" viewBox="0 0 314.551 197.168">
 <g>
  
  <path d="M37.9883 196.875L276.562 196.875C301.758 196.875 314.551 184.082 314.551 159.18L314.551 37.6953C314.551 12.793 301.758 0 276.562 0L37.9883 0C12.6953 0 0 12.6953 0 37.6953L0 159.18C0 184.18 12.6953 196.875 37.9883 196.875ZM38.3789 179.59C24.707 179.59 17.2852 172.266 17.2852 158.301L17.2852 38.5742C17.2852 24.6094 24.707 17.3828 38.3789 17.3828L276.172 17.3828C289.551 17.3828 297.266 24.6094 297.266 38.5742L297.266 158.301C297.266 172.266 289.551 179.59 276.172 179.59ZM50 68.6523L61.0352 68.6523C64.4531 68.6523 66.5039 66.6016 66.5039 63.1836L66.5039 52.1484C66.5039 48.7305 64.4531 46.582 61.0352 46.582L50 46.582C46.582 46.582 44.5312 48.7305 44.5312 52.1484L44.5312 63.1836C44.5312 66.6016 46.582 68.6523 50 68.6523ZM90.5273 68.6523L101.562 68.6523C104.98 68.6523 107.129 66.6016 107.129 63.1836L107.129 52.1484C107.129 48.7305 104.98 46.582 101.562 46.582L90.5273 46.582C87.1094 46.582 85.0586 48.7305 85.0586 52.1484L85.0586 63.1836C85.0586 66.6016 87.1094 68.6523 90.5273 68.6523ZM131.055 68.6523L142.09 68.6523C145.508 68.6523 147.656 66.6016 147.656 63.1836L147.656 52.1484C147.656 48.7305 145.508 46.582 142.09 46.582L131.055 46.582C127.637 46.582 125.586 48.7305 125.586 52.1484L125.586 63.1836C125.586 66.6016 127.637 68.6523 131.055 68.6523ZM171.582 68.6523L182.617 68.6523C186.035 68.6523 188.184 66.6016 188.184 63.1836L188.184 52.1484C188.184 48.7305 186.035 46.582 182.617 46.582L171.582 46.582C168.164 46.582 166.113 48.7305 166.113 52.1484L166.113 63.1836C166.113 66.6016 168.164 68.6523 171.582 68.6523ZM212.109 68.6523L223.145 68.6523C226.66 68.6523 228.711 66.6016 228.711 63.1836L228.711 52.1484C228.711 48.7305 226.66 46.582 223.145 46.582L212.109 46.582C208.691 46.582 206.641 48.7305 206.641 52.1484L206.641 63.1836C206.641 66.6016 208.691 68.6523 212.109 68.6523ZM252.637 68.6523L263.672 68.6523C267.188 68.6523 269.238 66.6016 269.238 63.1836L269.238 52.1484C269.238 48.7305 267.188 46.582 263.672 46.582L252.637 46.582C249.219 46.582 247.168 48.7305 247.168 52.1484L247.168 63.1836C247.168 66.6016 249.219 68.6523 252.637 68.6523ZM50 109.18L61.0352 109.18C64.4531 109.18 66.5039 107.129 66.5039 103.711L66.5039 92.6758C66.5039 89.2578 64.4531 87.207 61.0352 87.207L50 87.207C46.582 87.207 44.5312 89.2578 44.5312 92.6758L44.5312 103.711C44.5312 107.129 46.582 109.18 50 109.18ZM90.5273 109.18L101.562 109.18C104.98 109.18 107.129 107.129 107.129 103.711L107.129 92.6758C107.129 89.2578 104.98 87.207 101.562 87.207L90.5273 87.207C87.1094 87.207 85.0586 89.2578 85.0586 92.6758L85.0586 103.711C85.0586 107.129 87.1094 109.18 90.5273 109.18ZM131.055 109.18L142.09 109.18C145.508 109.18 147.656 107.129 147.656 103.711L147.656 92.6758C147.656 89.2578 145.508 87.207 142.09 87.207L131.055 87.207C127.637 87.207 125.586 89.2578 125.586 92.6758L125.586 103.711C125.586 107.129 127.637 109.18 131.055 109.18ZM171.582 109.18L182.617 109.18C186.035 109.18 188.184 107.129 188.184 103.711L188.184 92.6758C188.184 89.2578 186.035 87.207 182.617 87.207L171.582 87.207C168.164 87.207 166.113 89.2578 166.113 92.6758L166.113 103.711C166.113 107.129 168.164 109.18 171.582 109.18ZM212.109 109.18L223.145 109.18C226.66 109.18 228.711 107.129 228.711 103.711L228.711 92.6758C228.711 89.2578 226.66 87.207 223.145 87.207L212.109 87.207C208.691 87.207 206.641 89.2578 206.641 92.6758L206.641 103.711C206.641 107.129 208.691 109.18 212.109 109.18ZM252.637 109.18L263.672 109.18C267.188 109.18 269.238 107.129 269.238 103.711L269.238 92.6758C269.238 89.2578 267.188 87.207 263.672 87.207L252.637 87.207C249.219 87.207 247.168 89.2578 247.168 92.6758L247.168 103.711C247.168 107.129 249.219 109.18 252.637 109.18ZM50 149.805L61.0352 149.805C64.4531 149.805 66.5039 147.656 66.5039 144.238L66.5039 133.203C66.5039 129.785 64.4531 127.734 61.0352 127.734L50 127.734C46.582 127.734 44.5312 129.785 44.5312 133.203L44.5312 144.238C44.5312 147.656 46.582 149.805 50 149.805ZM91.5039 149.805L222.168 149.805C226.27 149.805 228.711 147.363 228.711 143.262L228.711 134.18C228.711 130.078 226.27 127.734 222.168 127.734L91.5039 127.734C87.4023 127.734 85.0586 130.078 85.0586 134.18L85.0586 143.262C85.0586 147.363 87.4023 149.805 91.5039 149.805ZM252.637 149.805L263.672 149.805C267.188 149.805 269.238 147.656 269.238 144.238L269.238 133.203C269.238 129.785 267.188 127.734 263.672 127.734L252.637 127.734C249.219 127.734 247.168 129.785 247.168 133.203L247.168 144.238C247.168 147.656 249.219 149.805 252.637 149.805Z" fill="white" fill-opacity="0.85"/>
 </g>
</svg>
