<?xml version="1.0" encoding="UTF-8"?>
<!--Generator: Apple Native CoreSVG 341-->
<!DOCTYPE svg
PUBLIC "-//W3C//DTD SVG 1.1//EN"
       "http://www.w3.org/Graphics/SVG/1.1/DTD/svg11.dtd">
<svg version="1.1" xmlns="http://www.w3.org/2000/svg" xmlns:xlink="http://www.w3.org/1999/xlink" viewBox="0 0 237.012 236.23">
 <g>
  
  <path d="M52.5391 235.547L184.473 235.547C213.867 235.547 237.012 215.039 237.012 185.059C237.012 155.176 213.867 134.668 184.473 134.668L52.5391 134.668C23.1445 134.668 0 155.176 0 185.059C0 215.039 23.1445 235.547 52.5391 235.547ZM147.266 218.848C128.223 218.848 112.598 205.176 112.598 184.961C112.598 164.941 128.223 151.27 147.266 151.27L186.328 151.27C205.469 151.27 220.996 164.941 220.996 185.059C220.996 205.176 205.469 218.848 186.328 218.848Z" fill="white" fill-opacity="0.85"/>
  <path d="M58.0078 112.793L179.004 112.793C210.938 112.793 237.012 89.9414 237.012 56.4453C237.012 22.9492 210.938 0 179.004 0L58.0078 0C26.0742 0 0 22.9492 0 56.4453C0 89.9414 26.0742 112.793 58.0078 112.793ZM58.0078 96.4844C35.4492 96.4844 16.8945 80.2734 16.8945 56.4453C16.8945 32.6172 35.4492 16.4062 58.0078 16.4062L179.004 16.4062C201.562 16.4062 220.117 32.7148 220.117 56.4453C220.117 80.1758 201.562 96.4844 179.004 96.4844Z" fill="white" fill-opacity="0.85"/>
  <path d="M58.0078 88.0859L95.6055 88.0859C113.477 88.0859 128.125 75.1953 128.125 56.4453C128.125 37.5977 113.477 24.707 95.6055 24.707L58.0078 24.707C40.1367 24.707 25.5859 37.5977 25.5859 56.3477C25.5859 75.1953 40.1367 88.0859 58.0078 88.0859Z" fill="white" fill-opacity="0.85"/>
 </g>
</svg>
